<svg xmlns="http://www.w3.org/2000/svg" width="146.534" height="25.426" viewBox="0 0 146.534 25.426"><g transform="translate(-0.531)"><path d="M18.82,19.355c-.577,3.935-3.356,6.07-9.369,6.07-4.7,0-8.92-2.274-8.92-9.277,0-5.968,3.738-9.073,9.5-9.073,6.074,0,8.987,3.345,8.987,9.517v1.173H7.948v.517c0,2,.638,2.864,2.175,2.864a1.947,1.947,0,0,0,1.92-1.793Zm-6.779-5.247v-.241c0-1.654-.8-2.521-2.014-2.521-1.248,0-2.081.86-2.081,2.521v.241Z" fill="#222"/><path d="M30.874,12.935a2.386,2.386,0,0,0-.382-1.625,1.472,1.472,0,0,0-1.148-.379c-1.282,0-1.665.517-1.665,1.275s.322,1.137,2.363,1.45c6.235.933,7.9,2.245,7.9,5.619,0,3.76-2.4,6.136-8.792,6.136-5.208,0-8.41-1.654-8.47-6.274h6.973a3.17,3.17,0,0,0,.476,1.895,1.547,1.547,0,0,0,1.282.517c1.215,0,1.564-.656,1.564-1.479,0-.517-.195-1.071-1.181-1.275-.483-.1-1.087-.24-3.423-.721-3.933-.831-5.47-2.033-5.47-5.211s2.336-5.794,8.054-5.794c4.953,0,8.376,1.312,8.5,5.866Z" fill="#222"/><path d="M39.929,0h7.738V5.313H39.929Zm0,7.594h7.738V24.909H39.929Z" fill="#222"/><path d="M49.619,20.011l5.6-6.763H50.069V7.594H64.647v5.313l-5.081,6.347h5.6v5.655H49.619Z" fill="#222"/><path d="M85.083,19.355c-.577,3.935-3.356,6.07-9.369,6.07-4.7,0-8.92-2.274-8.92-9.277,0-5.968,3.738-9.073,9.5-9.073,6.074,0,8.987,3.345,8.987,9.517v1.173H74.217v.517c0,2,.638,2.864,2.174,2.864a1.947,1.947,0,0,0,1.919-1.793ZM78.3,14.108v-.241c0-1.654-.8-2.521-2.013-2.521-1.248,0-2.081.86-2.081,2.521v.241Z" fill="#222"/><path d="M86.909,17.8h7.738v7.105H86.909Z" fill="#222"/><path d="M97.721,7.593h7.544l.194,2.623h.068a5.348,5.348,0,0,1,5.053-3.141,5.279,5.279,0,0,1,5.242,3.141,5.349,5.349,0,0,1,5.054-3.141c3.228,0,5.564,1.727,5.564,6.311V24.908H118.7V14.043c0-1.21-.61-1.865-1.342-1.865s-1.409.554-1.409,1.931V24.9H108.2V14.043c0-1.21-.61-1.865-1.342-1.865s-1.409.554-1.409,1.931V24.9H97.714V7.593Z" fill="#222"/><path d="M146.87,19.355c-.577,3.935-3.356,6.07-9.369,6.07-4.7,0-8.92-2.274-8.92-9.277,0-5.968,3.738-9.073,9.5-9.073,6.074,0,8.987,3.345,8.987,9.517v1.173H136v.517c0,2,.638,2.864,2.174,2.864a1.948,1.948,0,0,0,1.92-1.793Zm-6.779-5.247v-.241c0-1.654-.8-2.521-2.013-2.521-1.249,0-2.081.86-2.081,2.521v.241Z" fill="#222"/></g></svg>