<svg xmlns="http://www.w3.org/2000/svg" width="147.537" height="32.117" viewBox="0 0 147.537 32.117"><path d="M5.968,0h19.5L24.083,6.608h-9.77l-.6,2.7h9.024l-1.424,6.608H12.285l-.6,2.843h10.09l-1.424,6.608H.531ZM33.405,20.1l-3.237,5.271H20.645l7.428-9.488L24.948,7.729h9.1l.992,4.707,2.6-4.707h9.1L40.438,15.88l3.52,9.488h-9.1ZM56.927,7.729h-8.1L43.57,32.117h8.6l1.8-8.382a5.456,5.456,0,0,0,4.833,2.146c3.871,0,7.846-2.457,9.27-9.132,1.35-6.251-1.029-9.555-5.362-9.555a8.157,8.157,0,0,0-6.108,2.569Zm-.358,13.178a1.421,1.421,0,0,1-1.492-1.618,10.482,10.482,0,0,1,.316-2.23c.031-.156.065-.325.1-.509a11,11,0,0,1,1.1-3.408,1.99,1.99,0,0,1,1.812-.95c1.85,0,1.641,1.967,1.1,4.358C58.918,19.362,58.344,20.906,56.569,20.906ZM72.245,7.729h8.383l-.216,1.93c1.6-1.581,2.879-2.146,3.975-2.146a4.086,4.086,0,0,1,2.17.49L85.17,14.4a12.5,12.5,0,0,0-3.483-.49,2.6,2.6,0,0,0-2.662,2.212l-1.991,9.243H68.442ZM93.03,25.9c6.675,0,10.232-2.175,11.724-6.184H97.221A2.717,2.717,0,0,1,94.7,21.537c-1.7,0-2.237-.876-1.775-2.918l.1-.527h12.29l.246-1.2c1.358-6.288-1.133-9.7-7.882-9.7-6.4,0-11.231,3.163-12.544,9.243C83.618,23.579,87.81,25.9,93.03,25.9Zm5.407-11.767-.037.245H93.85l.037-.245a2.9,2.9,0,0,1,2.879-2.569C98.116,11.559,98.795,12.443,98.437,14.128Zm21.143-.95c.179-.876.141-1.373-.075-1.656a1.509,1.509,0,0,0-1.208-.386c-1.424,0-1.954.527-2.133,1.3-.142.772.1,1.158,2.312,1.477,6.749.95,8.278,2.287,7.57,5.724-.85,3.831-4.013,6.251-11.12,6.251-5.787,0-8.986-1.685-8.062-6.392h7.749a2.809,2.809,0,0,0,.142,1.93,1.436,1.436,0,0,0,1.312.527,1.818,1.818,0,0,0,2.059-1.507c.1-.527,0-1.091-1.03-1.3-.189-.037-.391-.078-.682-.138h0c-.533-.109-1.367-.28-2.978-.6-4.192-.846-5.616-2.071-4.937-5.308.708-3.23,3.87-5.9,10.232-5.9,5.5,0,9.024,1.336,8.173,5.976Zm20.964-1.656c.216.282.253.78.074,1.656h7.324c.85-4.64-2.67-5.976-8.174-5.976-6.361,0-9.523,2.673-10.232,5.9-.679,3.237.746,4.462,4.937,5.308,1.611.317,2.446.488,2.979.6.291.06.493.1.683.138,1.029.208,1.133.772,1.029,1.3a1.817,1.817,0,0,1-2.058,1.507,1.438,1.438,0,0,1-1.313-.527,2.815,2.815,0,0,1-.142-1.93H127.9c-.925,4.707,2.274,6.392,8.062,6.392,7.107,0,10.269-2.42,11.119-6.251.709-3.437-.82-4.774-7.569-5.724-2.208-.319-2.454-.705-2.312-1.477.179-.772.708-1.3,2.133-1.3A1.511,1.511,0,0,1,140.544,11.522Z" transform="translate(-0.531)" fill="#222" fill-rule="evenodd"/></svg>