<svg xmlns="http://www.w3.org/2000/svg" width="348" height="23.75" viewBox="0 0 348 23.75"><path d="M0,0H9.45V9.989h.071L14.48,0H24.674l-6.51,10.956,7.424,12.311H15.125l-5.6-10.438H9.45V23.267H0ZM36.391,11.5c0-.8-.439-1.287-1.587-1.287-1.013,0-1.551.32-1.651,1.675H26.4C26.672,7.538,30.858,6.6,35.144,6.6c6.51,0,8.607,1.968,8.607,5.733V23.26H36.6l-.205-1.546a5.91,5.91,0,0,1-4.824,2.029c-3.443,0-5.873-1.743-5.873-4.93,0-4,3.372-5.638,9.719-5.638h.978Zm0,4.705H35.279c-2.161,0-2.635.967-2.635,1.866,0,1.028.645,1.675,1.891,1.675,1.417,0,1.856-.872,1.856-2.193ZM54.314,7.088H46.351V23.26h8.175V14.783a1.886,1.886,0,0,1,2.09-2.029,13.512,13.512,0,0,1,3.408.449V7.34a4.665,4.665,0,0,0-2.161-.449,4.364,4.364,0,0,0-3.344,1.968Zm8.175,4.773h-2.2V7.088h2.2V4.48l8.168-2.71V7.088h3.677v4.773H70.657v4.964c0,1.226.4,1.641,1.381,1.641a7.672,7.672,0,0,0,1.991-.191v4.766a28.245,28.245,0,0,1-5.434.708c-3.174,0-6.106-.933-6.106-4.542Zm21.664-1.648c1.148,0,1.587.483,1.587,1.287v1.675h-.978c-6.347,0-9.719,1.641-9.719,5.638,0,3.187,2.43,4.93,5.873,4.93a5.91,5.91,0,0,0,4.824-2.029l.205,1.546H93.1V12.338C93.1,8.573,91,6.6,84.493,6.6c-4.286,0-8.473.933-8.742,5.284H82.5C82.6,10.533,83.139,10.214,84.152,10.214Zm.475,5.992h1.112v1.348c0,1.321-.439,2.193-1.856,2.193-1.247,0-1.891-.647-1.891-1.675C81.992,17.172,82.466,16.205,84.627,16.205Z" fill="#1d1d1b" fill-rule="evenodd"/><path d="M108.1,0h14.168c5.873,0,8.643,3.255,8.643,7.64,0,4.637-3.174,7.8-9.989,7.8h-3.174v7.83H108.1Zm10.116,10.152c2.494,0,3.443-.872,3.443-2.513s-.808-2.356-2.9-2.356h-1.013v4.868ZM141.342,6.6c6.886,0,10.364,3.445,10.364,8.573s-3.478,8.573-10.364,8.573-10.357-3.445-10.357-8.573S134.456,6.6,141.342,6.6Zm0,12.76c1.318,0,1.927-.967,1.927-4.188s-.609-4.188-1.927-4.188-1.92.967-1.92,4.188S140.024,19.365,141.342,19.365Zm19.17,4.378a6.3,6.3,0,0,0,5.263-2.349l.135,1.872H173.6V0h-8.168V8.573A6.576,6.576,0,0,0,160.4,6.6c-3.676,0-6.949,2.254-6.949,8.375C153.456,20.713,156.4,23.743,160.512,23.743Zm3.039-12.563a1.727,1.727,0,0,1,1.757,1.484,11.3,11.3,0,0,1,.127,2.512,8.5,8.5,0,0,1-.34,3.125,1.463,1.463,0,0,1-1.516.872c-1.75,0-1.955-1.8-1.955-4C161.624,12.6,161.865,11.181,163.551,11.181Zm22.754.32c0-.8-.439-1.287-1.587-1.287-1.013,0-1.551.32-1.65,1.675h-6.751c.269-4.351,4.456-5.284,8.741-5.284,6.511,0,8.608,1.968,8.608,5.733V23.26h-7.155l-.206-1.546a5.909,5.909,0,0,1-4.824,2.029c-3.443,0-5.873-1.743-5.873-4.93,0-4,3.372-5.638,9.72-5.638h.977Zm0,4.705h-1.112c-2.161,0-2.635.967-2.635,1.866,0,1.028.644,1.675,1.891,1.675,1.417,0,1.856-.872,1.856-2.193Zm17.923-9.117h-7.956V23.26h8.168V14.783a1.886,1.886,0,0,1,2.09-2.029,13.523,13.523,0,0,1,3.408.449V7.34a4.668,4.668,0,0,0-2.161-.449,4.365,4.365,0,0,0-3.344,1.968Zm26.459,16.178h-7.963l-.205-2.451h-.071a5.78,5.78,0,0,1-5.334,2.935c-3.408,0-5.873-1.614-5.873-5.9V7.088h8.168V17.111c0,1.192.5,1.866,1.488,1.866.913,0,1.622-.517,1.622-1.8V7.088h8.168Zm10.4-16.178h-7.962V23.26h8.168V13.175c0-1.287.708-1.8,1.622-1.8.978,0,1.488.681,1.488,1.872V23.267h8.168V12.5c0-4.283-2.465-5.9-5.873-5.9a5.78,5.78,0,0,0-5.334,2.935h-.071ZM255.007,0h8.161V13.339h.07l3.04-6.251h8.84l-4.725,6.932,5.066,9.247h-8.841l-3.372-8.443h-.071v8.443h-8.168Zm41.647,15.177c0-5.127-3.478-8.573-10.364-8.573s-10.357,3.445-10.357,8.573S279.4,23.75,286.29,23.75,296.654,20.3,296.654,15.177Zm-8.437,0c0,3.221-.609,4.188-1.927,4.188s-1.92-.967-1.92-4.188.6-4.188,1.92-4.188S288.217,11.957,288.217,15.177Zm9.316-8.089h7.828l1.353,10.506h.071l2.026-10.506h9.046l1.891,10.506h.071l1.757-10.506H329.4l-4.187,16.178h-9.988L313.2,12.958h-.071l-2.026,10.309h-9.989Zm41.52,3.125c1.147,0,1.587.483,1.587,1.287v1.675h-.978c-6.347,0-9.719,1.641-9.719,5.638,0,3.187,2.429,4.93,5.872,4.93a5.912,5.912,0,0,0,4.825-2.029l.2,1.546H348V12.338c0-3.765-2.1-5.733-8.607-5.733-4.286,0-8.473.933-8.742,5.284H337.4C337.5,10.533,338.04,10.214,339.053,10.214Zm.474,5.992h1.113v1.348c0,1.321-.44,2.193-1.857,2.193-1.246,0-1.891-.647-1.891-1.675C336.892,17.172,337.367,16.205,339.527,16.205Z" fill="#1d1d1b" fill-rule="evenodd"/></svg>