<svg xmlns="http://www.w3.org/2000/svg" width="106.487" height="30" viewBox="0 0 106.487 30"><path d="M0,0H13.78c5.709,0,8.4,3.316,8.4,7.783,0,4.724-3.085,7.942-9.71,7.942H9.386V23.7H0ZM9.841,10.335c2.424,0,3.347-.888,3.347-2.559s-.785-2.4-2.823-2.4H9.379v4.959Zm23.1,1.38c0-.818-.427-1.311-1.542-1.311-.985,0-1.508.326-1.6,1.706H23.235c.262-4.432,4.331-5.383,8.5-5.383,6.329,0,8.367,2,8.367,5.84V23.695H33.144l-.2-1.575a5.623,5.623,0,0,1-4.689,2.067c-3.347,0-5.709-1.776-5.709-5.022,0-4.072,3.278-5.743,9.448-5.743h.95Zm0,4.793H31.863c-2.1,0-2.562.985-2.562,1.9a1.614,1.614,0,0,0,1.839,1.706c1.377,0,1.8-.888,1.8-2.234Zm8.4-9.288L48,24.194,45.807,30H54.4L62.211,7.221h-7.94L52.109,16.28H52.04L49.746,7.221ZM64.1,0H77.874c5.709,0,8.4,3.316,8.4,7.783,0,4.724-3.085,7.942-9.71,7.942H73.48V23.7H64.1Zm9.834,10.335c2.424,0,3.347-.888,3.347-2.559s-.785-2.4-2.823-2.4h-.985v4.959Zm32.552,5.126c0-5.223-3.382-8.733-10.075-8.733s-10.068,3.51-10.068,8.733,3.374,8.733,10.068,8.733S106.487,20.684,106.487,15.461Zm-8.2,0c0,3.281-.592,4.266-1.873,4.266s-1.866-.985-1.866-4.266.585-4.266,1.866-4.266S98.285,12.18,98.285,15.461Z" fill="#222" fill-rule="evenodd"/></svg>